<svg width="48" height="48" viewBox="0 0 48 48" fill="none" xmlns="http://www.w3.org/2000/svg">
<rect width="48" height="48" rx="10" fill="#66D4FF" fill-opacity="0.3"/>
<g clip-path="url(#clip0_95_4085)">
<path d="M24 18.3334C20.8692 18.3334 18.3333 20.8692 18.3333 24C18.3333 27.1309 20.8692 29.6667 24 29.6667C27.1308 29.6667 29.6667 27.1309 29.6667 24C29.6667 20.8692 27.1308 18.3334 24 18.3334ZM36.665 22.5834C36.0133 16.6759 31.3242 11.9867 25.4167 11.335V9.83335C25.4167 9.05419 24.7792 8.41669 24 8.41669C23.2208 8.41669 22.5833 9.05419 22.5833 9.83335V11.335C16.6758 11.9867 11.9867 16.6759 11.335 22.5834H9.83333C9.05416 22.5834 8.41666 23.2209 8.41666 24C8.41666 24.7792 9.05416 25.4167 9.83333 25.4167H11.335C11.9867 31.3242 16.6758 36.0134 22.5833 36.665V38.1667C22.5833 38.9459 23.2208 39.5834 24 39.5834C24.7792 39.5834 25.4167 38.9459 25.4167 38.1667V36.665C31.3242 36.0134 36.0133 31.3242 36.665 25.4167H38.1667C38.9458 25.4167 39.5833 24.7792 39.5833 24C39.5833 23.2209 38.9458 22.5834 38.1667 22.5834H36.665ZM24 33.9167C18.5175 33.9167 14.0833 29.4825 14.0833 24C14.0833 18.5175 18.5175 14.0834 24 14.0834C29.4825 14.0834 33.9167 18.5175 33.9167 24C33.9167 29.4825 29.4825 33.9167 24 33.9167Z" fill="#10A7E4"/>
</g>
<defs>
<clipPath id="clip0_95_4085">
<rect width="34" height="34" fill="white" transform="translate(7 7)"/>
</clipPath>
</defs>
</svg>
