<svg width="48" height="48" viewBox="0 0 48 48" fill="none" xmlns="http://www.w3.org/2000/svg">
<rect width="48" height="48" rx="10" fill="#FFAA5B" fill-opacity="0.3"/>
<g clip-path="url(#clip0_95_4078)">
<path d="M38.1525 12.6667C38.1525 11.1083 36.8917 9.83333 35.3333 9.83333H12.6667C11.1083 9.83333 9.83334 11.1083 9.83334 12.6667V29.6667C9.83334 31.225 11.1083 32.5 12.6667 32.5H32.5L38.1667 38.1667L38.1525 12.6667ZM31.0833 26.8333H16.9167C16.1375 26.8333 15.5 26.1958 15.5 25.4167C15.5 24.6375 16.1375 24 16.9167 24H31.0833C31.8625 24 32.5 24.6375 32.5 25.4167C32.5 26.1958 31.8625 26.8333 31.0833 26.8333ZM31.0833 22.5833H16.9167C16.1375 22.5833 15.5 21.9458 15.5 21.1667C15.5 20.3875 16.1375 19.75 16.9167 19.75H31.0833C31.8625 19.75 32.5 20.3875 32.5 21.1667C32.5 21.9458 31.8625 22.5833 31.0833 22.5833ZM31.0833 18.3333H16.9167C16.1375 18.3333 15.5 17.6958 15.5 16.9167C15.5 16.1375 16.1375 15.5 16.9167 15.5H31.0833C31.8625 15.5 32.5 16.1375 32.5 16.9167C32.5 17.6958 31.8625 18.3333 31.0833 18.3333Z" fill="#FFAA5B"/>
</g>
<defs>
<clipPath id="clip0_95_4078">
<rect width="34" height="34" fill="white" transform="translate(7 7)"/>
</clipPath>
</defs>
</svg>
