<svg width="48" height="48" viewBox="0 0 48 48" fill="none" xmlns="http://www.w3.org/2000/svg">
<rect width="48" height="48" rx="10" fill="#AD5BFF" fill-opacity="0.3"/>
<g clip-path="url(#clip0_95_4221)">
<path d="M28.9583 26.8333H27.8392L27.4425 26.4508C29.1425 24.4675 30.0208 21.7617 29.5392 18.8858C28.8733 14.9475 25.5867 11.8025 21.62 11.3208C15.6275 10.5842 10.5842 15.6275 11.3208 21.62C11.8025 25.5867 14.9475 28.8733 18.8858 29.5392C21.7617 30.0208 24.4675 29.1425 26.4508 27.4425L26.8333 27.8392V28.9583L32.8542 34.9792C33.435 35.56 34.3842 35.56 34.965 34.9792C35.5458 34.3983 35.5458 33.4492 34.965 32.8683L28.9583 26.8333ZM20.4583 26.8333C16.9308 26.8333 14.0833 23.9858 14.0833 20.4583C14.0833 16.9308 16.9308 14.0833 20.4583 14.0833C23.9858 14.0833 26.8333 16.9308 26.8333 20.4583C26.8333 23.9858 23.9858 26.8333 20.4583 26.8333Z" fill="#AD5BFF"/>
</g>
<defs>
<clipPath id="clip0_95_4221">
<rect width="34" height="34" fill="white" transform="translate(7 7)"/>
</clipPath>
</defs>
</svg>
