<svg width="48" height="48" viewBox="0 0 48 48" fill="none" xmlns="http://www.w3.org/2000/svg">
<rect width="48" height="48" rx="10" fill="#FF5B5B" fill-opacity="0.3"/>
<g clip-path="url(#clip0_95_4228)">
<path d="M28.25 24C31.3809 24 33.9167 21.4642 33.9167 18.3334C33.9167 15.2025 31.3809 12.6667 28.25 12.6667C25.1192 12.6667 22.5834 15.2025 22.5834 18.3334C22.5834 21.4642 25.1192 24 28.25 24ZM15.5 21.1667V18.3334C15.5 17.5542 14.8625 16.9167 14.0834 16.9167C13.3042 16.9167 12.6667 17.5542 12.6667 18.3334V21.1667H9.83335C9.05419 21.1667 8.41669 21.8042 8.41669 22.5834C8.41669 23.3625 9.05419 24 9.83335 24H12.6667V26.8334C12.6667 27.6125 13.3042 28.25 14.0834 28.25C14.8625 28.25 15.5 27.6125 15.5 26.8334V24H18.3334C19.1125 24 19.75 23.3625 19.75 22.5834C19.75 21.8042 19.1125 21.1667 18.3334 21.1667H15.5ZM28.25 26.8334C24.4675 26.8334 16.9167 28.7317 16.9167 32.5V33.9167C16.9167 34.6959 17.5542 35.3334 18.3334 35.3334H38.1667C38.9459 35.3334 39.5834 34.6959 39.5834 33.9167V32.5C39.5834 28.7317 32.0325 26.8334 28.25 26.8334Z" fill="#FF5B5B"/>
</g>
<defs>
<clipPath id="clip0_95_4228">
<rect width="34" height="34" fill="white" transform="translate(7 7)"/>
</clipPath>
</defs>
</svg>
