<svg width="24" height="24" viewBox="0 0 24 24" fill="none" xmlns="http://www.w3.org/2000/svg">
<path fill-rule="evenodd" clip-rule="evenodd" d="M23.7273 17.8368C23.7273 21.1144 21.0615 23.7801 17.784 23.7801H6.11039C2.8333 23.7801 0.167114 21.1144 0.167114 17.8368V6.16324C0.167114 2.88615 2.8333 0.219971 6.11039 0.219971H17.784C21.0615 0.219971 23.7273 2.88615 23.7273 6.16324V17.8368ZM17.7824 2.78394H6.10881C4.24554 2.78394 2.72961 4.29986 2.72961 6.16314V17.8367C2.72961 19.7 4.24554 21.2164 6.10881 21.2164H17.7824C19.6457 21.2164 21.1621 19.7004 21.1621 17.8367V6.16314C21.1621 4.29986 19.6461 2.78394 17.7824 2.78394ZM5.87805 12C5.87805 15.346 8.60009 18.0681 11.9457 18.0681C15.2913 18.0681 18.0138 15.3456 18.0138 12C18.0138 8.65441 15.2917 5.93237 11.9457 5.93237C8.60009 5.93237 5.87805 8.65441 5.87805 12ZM11.9485 8.49634C10.0171 8.49634 8.44446 10.0681 8.44446 11.9995C8.44446 13.9317 10.0171 15.5039 11.9485 15.5039C13.8807 15.5039 15.452 13.9317 15.452 11.9995C15.452 10.0686 13.8802 8.49634 11.9485 8.49634ZM16.7726 5.75131C16.7726 6.54287 17.4167 7.18695 18.2087 7.18695C19.0002 7.18695 19.6443 6.54287 19.6443 5.75131C19.6443 4.95975 19.0002 4.31567 18.2087 4.31567C17.4167 4.31567 16.7726 4.95975 16.7726 5.75131Z" fill="#404852"/>
</svg>
