<svg width="24" height="25" viewBox="0 0 24 25" fill="none" xmlns="http://www.w3.org/2000/svg">
<g clip-path="url(#clip0_95_3958)">
<path d="M12 2.48389C8.13 2.48389 5 5.61389 5 9.48389C5 13.6539 9.42 19.4039 11.24 21.5939C11.64 22.0739 12.37 22.0739 12.77 21.5939C14.58 19.4039 19 13.6539 19 9.48389C19 5.61389 15.87 2.48389 12 2.48389ZM12 11.9839C10.62 11.9839 9.5 10.8639 9.5 9.48389C9.5 8.10389 10.62 6.98389 12 6.98389C13.38 6.98389 14.5 8.10389 14.5 9.48389C14.5 10.8639 13.38 11.9839 12 11.9839Z" fill="#949494"/>
</g>
<defs>
<clipPath id="clip0_95_3958">
<rect width="24" height="24" fill="white" transform="translate(0 0.483887)"/>
</clipPath>
</defs>
</svg>
