<svg width="200" height="36" viewBox="0 0 200 36" fill="none" xmlns="http://www.w3.org/2000/svg">
<g clip-path="url(#clip0_95_4336)">
<mask id="mask0_95_4336" style="mask-type:luminance" maskUnits="userSpaceOnUse" x="0" y="0" width="36" height="36">
<path d="M35.4929 0.441162H0V35.5589H35.4929V0.441162Z" fill="white"/>
</mask>
<g mask="url(#mask0_95_4336)">
<path d="M26.89 9.05319C32.7774 14.9416 21.0024 3.16482 26.89 9.05319C32.7774 14.9416 21.7035 40.7497 20.0804 27.5964C18.4573 14.4428 21.5842 17.6238 8.24673 15.7609C-5.09069 13.898 21.0024 3.16482 26.89 9.05319Z" fill="url(#paint0_linear_95_4336)"/>
<path d="M13.3097 26.887C15.76 26.887 17.7464 24.9003 17.7464 22.4497C17.7464 19.9991 15.76 18.0125 13.3097 18.0125C10.8595 18.0125 8.87311 19.9991 8.87311 22.4497C8.87311 24.9003 10.8595 26.887 13.3097 26.887Z" fill="url(#paint1_linear_95_4336)"/>
</g>
<path d="M45.4718 27.4558C50.7084 27.4558 53.2395 24.7788 53.2395 21.229C53.2395 13.984 42.0971 16.0499 42.0971 12.9656C42.0971 11.8017 43.0863 11.0161 44.8609 11.0161C46.8392 11.0161 48.9339 11.6853 50.5048 13.1402L52.8031 10.1141C50.883 8.3392 48.3229 7.4081 45.239 7.4081C40.6715 7.4081 37.8786 10.085 37.8786 13.3147C37.8786 20.6181 49.0502 18.2612 49.0502 21.6947C49.0502 22.8003 47.9447 23.8477 45.6755 23.8477C42.999 23.8477 40.8751 22.6548 39.5078 21.229L37.2678 24.3715C39.0714 26.2046 41.748 27.4558 45.4718 27.4558ZM69.1419 27.1066V17.1264C69.1419 14.3913 67.658 12.7037 64.5742 12.7037C62.2759 12.7037 60.5304 13.8094 59.6285 14.886V7.69907H55.9339V27.1066H59.6285V17.6501C60.2685 16.8064 61.4032 15.9917 62.8287 15.9917C64.4288 15.9917 65.447 16.6027 65.447 18.5522V27.1066H69.1419ZM84.9414 27.1066V18.0284C84.9414 13.984 82.0029 12.7037 78.8028 12.7037C76.5918 12.7037 74.3808 13.402 72.6643 14.9151L74.0607 17.3883C75.2535 16.2826 76.65 15.7298 78.1627 15.7298C80.0247 15.7298 81.2466 16.6608 81.2466 18.0866V19.9779C80.3156 18.8723 78.6574 18.2612 76.7954 18.2612C74.5554 18.2612 71.9079 19.5124 71.9079 22.8003C71.9079 25.9427 74.5554 27.4558 76.7954 27.4558C78.6282 27.4558 80.2866 26.7865 81.2466 25.6518V27.1066H84.9414ZM78.2792 24.9534C76.8246 24.9534 75.6317 24.1969 75.6317 22.8876C75.6317 21.5201 76.8246 20.7635 78.2792 20.7635C79.472 20.7635 80.6356 21.1709 81.2466 21.9856V23.7314C80.6356 24.5461 79.472 24.9534 78.2792 24.9534ZM92.3009 27.1066V17.8247C92.9119 16.9227 94.5409 16.2243 95.7629 16.2243C96.1701 16.2243 96.5192 16.2536 96.7811 16.3116V12.7037C95.0356 12.7037 93.29 13.7221 92.3009 14.9733V13.0529H88.6061V27.1066H92.3009ZM105.694 27.4558C107.876 27.4558 110.087 26.7865 111.483 25.5062L109.854 23.1203C108.952 23.9933 107.294 24.5171 106.101 24.5171C103.715 24.5171 102.29 23.033 102.057 21.2582H112.501V20.4435C112.501 15.8462 109.65 12.7037 105.461 12.7037C101.184 12.7037 98.1878 15.9917 98.1878 20.0652C98.1878 24.5751 101.417 27.4558 105.694 27.4558ZM108.923 18.7558H101.999C102.173 17.3592 103.163 15.6425 105.461 15.6425C107.905 15.6425 108.836 17.4175 108.923 18.7558ZM124.654 27.4558C128.931 27.4558 131.375 25.0989 132.771 22.6838L129.222 20.9673C128.407 22.5675 126.662 23.7896 124.654 23.7896C121.134 23.7896 118.574 21.0836 118.574 17.4175C118.574 13.7512 121.134 11.0452 124.654 11.0452C126.662 11.0452 128.407 12.2964 129.222 13.8676L132.771 12.1218C131.404 9.70675 128.931 7.379 124.654 7.379C118.836 7.379 114.326 11.4526 114.326 17.4175C114.326 23.3822 118.836 27.4558 124.654 27.4558ZM147.275 27.1066V18.0284C147.275 13.984 144.336 12.7037 141.136 12.7037C138.925 12.7037 136.714 13.402 134.997 14.9151L136.394 17.3883C137.587 16.2826 138.983 15.7298 140.496 15.7298C142.358 15.7298 143.58 16.6608 143.58 18.0866V19.9779C142.649 18.8723 140.991 18.2612 139.129 18.2612C136.888 18.2612 134.241 19.5124 134.241 22.8003C134.241 25.9427 136.888 27.4558 139.129 27.4558C140.961 27.4558 142.62 26.7865 143.58 25.6518V27.1066H147.275ZM140.612 24.9534C139.158 24.9534 137.965 24.1969 137.965 22.8876C137.965 21.5201 139.158 20.7635 140.612 20.7635C141.805 20.7635 142.969 21.1709 143.58 21.9856V23.7314C142.969 24.5461 141.805 24.9534 140.612 24.9534ZM155.652 27.4558C157.195 27.4558 158.184 27.0483 158.736 26.5538L157.95 23.7604C157.747 23.9641 157.223 24.1679 156.67 24.1679C155.856 24.1679 155.39 23.4985 155.39 22.6257V16.2826H158.242V13.0529H155.39V9.21211H151.666V13.0529H149.339V16.2826H151.666V23.615C151.666 26.1173 153.063 27.4558 155.652 27.4558ZM162.603 11.5398C163.824 11.5398 164.813 10.5506 164.813 9.3285C164.813 8.10642 163.824 7.14624 162.603 7.14624C161.41 7.14624 160.391 8.10642 160.391 9.3285C160.391 10.5506 161.41 11.5398 162.603 11.5398ZM164.465 27.1066V13.0529H160.769V27.1066H164.465ZM174.644 27.4558C179.3 27.4558 182.093 24.0806 182.093 20.0652C182.093 16.079 179.3 12.7037 174.644 12.7037C170.019 12.7037 167.226 16.079 167.226 20.0652C167.226 24.0806 170.019 27.4558 174.644 27.4558ZM174.644 24.1679C172.345 24.1679 171.066 22.2765 171.066 20.0652C171.066 17.883 172.345 15.9917 174.644 15.9917C176.942 15.9917 178.251 17.883 178.251 20.0652C178.251 22.2765 176.942 24.1679 174.644 24.1679ZM198.013 27.1066V17.1846C198.013 14.4495 196.529 12.7037 193.444 12.7037C191.146 12.7037 189.43 13.8094 188.528 14.886V13.0529H184.834V27.1066H188.528V17.6501C189.138 16.8064 190.273 15.9917 191.729 15.9917C193.298 15.9917 194.317 16.6608 194.317 18.6104V27.1066H198.013Z" fill="url(#paint2_linear_95_4336)"/>
</g>
<defs>
<linearGradient id="paint0_linear_95_4336" x1="5.64433" y1="6.94295" x2="42.4324" y2="12.5681" gradientUnits="userSpaceOnUse">
<stop stop-color="#FF725E"/>
<stop offset="0.933482" stop-color="#FFB800"/>
</linearGradient>
<linearGradient id="paint1_linear_95_4336" x1="9.63369" y1="19.2328" x2="17.6214" y2="20.4098" gradientUnits="userSpaceOnUse">
<stop stop-color="#FF725E"/>
<stop offset="0.933482" stop-color="#FFB800"/>
</linearGradient>
<linearGradient id="paint2_linear_95_4336" x1="39.7707" y1="5.48969" x2="212.31" y2="109.504" gradientUnits="userSpaceOnUse">
<stop stop-color="#FF725E"/>
<stop offset="0.952814" stop-color="#FFB800"/>
</linearGradient>
<clipPath id="clip0_95_4336">
<rect width="200" height="35.4839" fill="white" transform="translate(0 0.258057)"/>
</clipPath>
</defs>
</svg>
